<?xml version="1.0" standalone="no"?>
<!DOCTYPE svg PUBLIC "-//W3C//DTD SVG 20010904//EN"
 "http://www.w3.org/TR/2001/REC-SVG-20010904/DTD/svg10.dtd">
<svg version="1.0" xmlns="http://www.w3.org/2000/svg"
 width="100.000000pt" height="100.000000pt" viewBox="0 0 100.000000 100.000000"
 preserveAspectRatio="xMidYMid meet">
<metadata>
Created by potrace 1.14, written by Peter Selinger 2001-2017
</metadata>
<g transform="translate(0.000000,100.000000) scale(0.100000,-0.100000)"
fill="#000000" stroke="none">
<path d="M403 716 c-59 -19 -98 -50 -113 -88 -6 -18 -17 -43 -22 -55 -6 -12
-8 -35 -6 -53 3 -17 1 -33 -4 -36 -12 -7 -10 -52 2 -59 6 -4 8 -16 4 -27 -5
-18 -1 -35 26 -88 6 -13 41 -15 220 -15 179 0 214 2 220 15 21 42 29 67 30 90
0 14 0 36 1 50 1 49 -23 166 -39 195 -29 48 -100 78 -195 82 -50 2 -98 -2
-124 -11z m210 -17 c49 -13 107 -64 107 -94 0 -26 -25 -32 -125 -30 -33 1
-113 3 -177 3 -116 2 -118 2 -118 25 0 30 47 75 96 92 47 17 164 19 217 4z
m-18 -219 c-3 -5 -23 -10 -44 -10 -20 0 -42 -5 -48 -11 -22 -22 -74 -19 -111
6 l-37 25 123 0 c80 0 121 -4 117 -10z m145 -85 c25 -31 -19 -48 -50 -20 -15
14 -18 14 -30 0 -17 -20 -47 -19 -59 3 -9 15 -12 15 -20 2 -8 -12 -4 -17 22
-26 18 -6 41 -8 51 -4 31 11 66 0 66 -21 0 -18 -11 -19 -210 -19 -199 0 -210
1 -210 19 0 22 33 33 64 22 11 -5 30 -5 41 -1 11 4 29 4 40 0 11 -4 29 -4 40
0 11 4 34 6 50 4 17 -2 23 -1 15 2 -8 3 -21 14 -28 23 -12 15 -14 15 -23 -1
-12 -22 -37 -23 -59 -3 -15 14 -18 14 -30 0 -17 -20 -47 -19 -60 3 -10 16 -10
16 -20 0 -12 -19 -45 -24 -54 -9 -4 5 -3 16 0 25 5 14 34 16 229 16 183 0 225
-3 235 -15z"/>
<path d="M426 671 c-4 -5 -2 -12 3 -15 5 -4 12 -2 15 3 4 5 2 12 -3 15 -5 4
-12 2 -15 -3z"/>
<path d="M396 641 c-4 -5 -2 -12 3 -15 5 -4 12 -2 15 3 4 5 2 12 -3 15 -5 4
-12 2 -15 -3z"/>
<path d="M456 641 c-4 -5 -2 -12 3 -15 5 -4 12 -2 15 3 4 5 2 12 -3 15 -5 4
-12 2 -15 -3z"/>
</g>
</svg>
