<svg xmlns="http://www.w3.org/2000/svg" viewBox="0 0 512 512"><defs><style>.cls-1{fill:#fff;}</style></defs><g id="Calque_2" data-name="Calque 2"><g id="Layer_1" data-name="Layer 1"><path class="cls-1" d="M279.89,512H232.11a32,32,0,0,1-31.7-28.16l-5.1-40A201.93,201.93,0,0,1,166,431.68l-31.87,24.77a31.82,31.82,0,0,1-42.34-2.69l-33.6-33.6c-11.46-11.11-12.61-29.31-2.61-42.22l24.77-31.89A197.44,197.44,0,0,1,68.2,316.74l-40.1-5.1A32,32,0,0,1,0,279.89V232.11a32,32,0,0,1,28.16-31.7l40-5.1A201.93,201.93,0,0,1,80.32,166L55.57,134.12a31.82,31.82,0,0,1,2.71-42.37l33.6-33.6C103,46.7,121.22,45.57,134.1,55.55L166,80.34A201.25,201.25,0,0,1,195.31,68.2l5.1-40.1A32,32,0,0,1,232.11,0h47.78a32,32,0,0,1,31.7,28.16l5.1,40A201.25,201.25,0,0,1,346,80.32L377.9,55.55a31.81,31.81,0,0,1,42.35,2.71l33.6,33.6a31.75,31.75,0,0,1,2.6,42.22L431.68,166a197.56,197.56,0,0,1,12.14,29.32l40.11,5.09A32,32,0,0,1,512,232.11v47.78a32,32,0,0,1-28.16,31.7l-40,5.1A201.93,201.93,0,0,1,431.68,346l24.77,31.87a31.78,31.78,0,0,1-2.71,42.34l-33.6,33.6a31.72,31.72,0,0,1-42.22,2.61L346,431.66a197.56,197.56,0,0,1-29.32,12.14l-5.09,40.1A32,32,0,0,1,279.89,512Zm-115-103.68a10.86,10.86,0,0,1,5.2,1.34A179.16,179.16,0,0,0,208,425.37a10.64,10.64,0,0,1,7.63,8.89l6,46.93a10.79,10.79,0,0,0,10.54,9.48h47.78a10.75,10.75,0,0,0,10.52-9.37l6-47a10.64,10.64,0,0,1,7.63-8.89,179.13,179.13,0,0,0,37.85-15.7,10.63,10.63,0,0,1,11.73.89l37.33,29a10.49,10.49,0,0,0,14-.72l33.81-33.81a10.55,10.55,0,0,0,.83-14.08l-29-37.34a10.65,10.65,0,0,1-.9-11.73,179.16,179.16,0,0,0,15.71-37.85,10.64,10.64,0,0,1,8.89-7.63l46.93-6a10.82,10.82,0,0,0,9.48-10.56V232.11a10.75,10.75,0,0,0-9.37-10.52l-47-6a10.64,10.64,0,0,1-8.89-7.63,179.13,179.13,0,0,0-15.7-37.85,10.6,10.6,0,0,1,.89-11.73l29-37.33a10.46,10.46,0,0,0-.7-14L405.08,73.28A10.5,10.5,0,0,0,391,72.45l-37.34,29a10.67,10.67,0,0,1-11.75.9,178.22,178.22,0,0,0-37.85-15.7,10.66,10.66,0,0,1-7.63-8.9l-6-46.93a10.82,10.82,0,0,0-10.56-9.5H232.11a10.75,10.75,0,0,0-10.52,9.37l-6,47A10.69,10.69,0,0,1,208,86.63a178.69,178.69,0,0,0-37.85,15.68,10.67,10.67,0,0,1-11.75-.87L121,72.43a10.46,10.46,0,0,0-14,.7L73.26,107a10.55,10.55,0,0,0-.83,14.08l29,37.33a10.65,10.65,0,0,1,.9,11.73A177.6,177.6,0,0,0,86.63,208a10.64,10.64,0,0,1-8.89,7.63l-46.93,6a10.79,10.79,0,0,0-9.48,10.54v47.78a10.75,10.75,0,0,0,9.37,10.52l47,6A10.64,10.64,0,0,1,86.61,304a179.13,179.13,0,0,0,15.7,37.85,10.6,10.6,0,0,1-.89,11.73L72.41,391a10.46,10.46,0,0,0,.7,14l33.81,33.81a10.54,10.54,0,0,0,14.08.83l37.34-29a11,11,0,0,1,6.57-2.22Z"/><path class="cls-1" d="M256,362.67A106.67,106.67,0,1,1,362.67,256,106.79,106.79,0,0,1,256,362.67Zm0-192A85.33,85.33,0,1,0,341.33,256,85.42,85.42,0,0,0,256,170.67Z"/></g></g></svg>